<svg xmlns="http://www.w3.org/2000/svg" viewBox="0 0 100 100">
  <circle cx="50" cy="50" r="50" fill="#1AEF22"/>
  <!-- Headset -->
  <path d="M50 20C34.5 20 22 32.5 22 48v6c0 3.3 2.7 6 6 6h2c3.3 0 6-2.7 6-6v-8c0-3.3-2.7-6-6-6h-1.4C30.8 30.4 39.8 24 50 24s19.2 6.4 21.4 16H70c-3.3 0-6 2.7-6 6v8c0 3.3 2.7 6 6 6h2c3.3 0 6-2.7 6-6v-6C78 32.5 65.5 20 50 20z" fill="white"/>
  <rect x="44" y="68" width="12" height="6" rx="3" fill="white"/>
  <rect x="38" y="74" width="24" height="6" rx="3" fill="white"/>
</svg>
